<svg width="147" height="49" viewBox="0 0 147 49" fill="none" xmlns="http://www.w3.org/2000/svg">
<rect x="0.5" y="0.5" width="145.742" height="48" rx="9.5" fill="#F7F6F5"/>
<rect x="0.5" y="0.5" width="145.742" height="48" rx="9.5" stroke="#ECEAE8"/>
<path d="M16.7343 30V18.8H20.6863C21.4543 18.8 22.1316 18.9493 22.7183 19.248C23.3049 19.5467 23.7636 19.9627 24.0943 20.496C24.4249 21.0187 24.5903 21.6267 24.5903 22.32C24.5903 23.0133 24.4143 23.6267 24.0623 24.16C23.7209 24.6933 23.2463 25.1147 22.6383 25.424C22.0303 25.7227 21.3423 25.872 20.5743 25.872H18.5903V30H16.7343ZM22.9423 30L20.3183 25.456L21.7583 24.464L25.0383 30H22.9423ZM18.5903 24.16H20.7663C21.1289 24.16 21.4489 24.08 21.7263 23.92C22.0143 23.76 22.2436 23.5413 22.4143 23.264C22.5956 22.9867 22.6863 22.672 22.6863 22.32C22.6863 21.7867 22.4943 21.3493 22.1103 21.008C21.7263 20.6667 21.2303 20.496 20.6223 20.496H18.5903V24.16ZM30.1538 30.192C29.3751 30.192 28.6818 30.016 28.0738 29.664C27.4764 29.3013 27.0018 28.8053 26.6497 28.176C26.3084 27.5467 26.1378 26.8213 26.1378 26C26.1378 25.1787 26.3138 24.4533 26.6658 23.824C27.0178 23.1947 27.4978 22.704 28.1058 22.352C28.7244 21.9893 29.4284 21.808 30.2178 21.808C30.9324 21.808 31.5778 21.9947 32.1538 22.368C32.7298 22.7307 33.1831 23.2587 33.5138 23.952C33.8551 24.6453 34.0258 25.472 34.0258 26.432H27.7378L27.9778 26.208C27.9778 26.6987 28.0844 27.1253 28.2978 27.488C28.5111 27.84 28.7938 28.112 29.1458 28.304C29.4978 28.496 29.8871 28.592 30.3138 28.592C30.8044 28.592 31.2098 28.4853 31.5298 28.272C31.8498 28.048 32.1004 27.76 32.2818 27.408L33.8658 28.08C33.6418 28.5067 33.3538 28.88 33.0018 29.2C32.6604 29.52 32.2498 29.7653 31.7698 29.936C31.3004 30.1067 30.7618 30.192 30.1538 30.192ZM28.0898 25.28L27.8338 25.056H32.3458L32.1058 25.28C32.1058 24.8427 32.0098 24.4853 31.8178 24.208C31.6258 23.92 31.3804 23.7067 31.0818 23.568C30.7938 23.4187 30.4898 23.344 30.1698 23.344C29.8498 23.344 29.5298 23.4187 29.2098 23.568C28.8898 23.7067 28.6231 23.92 28.4098 24.208C28.1964 24.4853 28.0898 24.8427 28.0898 25.28ZM28.9858 20.96L30.8418 18.8H32.9218L30.8578 20.96H28.9858ZM35.5415 30V22H37.3175V30H35.5415ZM36.4375 20.48C36.1495 20.48 35.8988 20.3787 35.6855 20.176C35.4828 19.9627 35.3815 19.712 35.3815 19.424C35.3815 19.136 35.4828 18.8907 35.6855 18.688C35.8988 18.4853 36.1495 18.384 36.4375 18.384C36.7255 18.384 36.9708 18.4853 37.1735 18.688C37.3868 18.8907 37.4935 19.136 37.4935 19.424C37.4935 19.712 37.3868 19.9627 37.1735 20.176C36.9708 20.3787 36.7255 20.48 36.4375 20.48ZM39.4295 30V22H41.1095L41.2215 23.472V30H39.4295ZM44.8535 30V25.904H46.6455V30H44.8535ZM44.8535 25.904C44.8535 25.264 44.7788 24.7733 44.6295 24.432C44.4908 24.08 44.2882 23.8347 44.0215 23.696C43.7655 23.5573 43.4615 23.488 43.1095 23.488C42.5122 23.4773 42.0482 23.6747 41.7175 24.08C41.3868 24.4853 41.2215 25.0667 41.2215 25.824H40.5495C40.5495 24.9813 40.6722 24.2613 40.9175 23.664C41.1628 23.056 41.5148 22.5973 41.9735 22.288C42.4322 21.968 42.9762 21.808 43.6055 21.808C44.2455 21.808 44.7895 21.936 45.2375 22.192C45.6962 22.448 46.0428 22.848 46.2775 23.392C46.5228 23.9253 46.6455 24.624 46.6455 25.488V25.904H44.8535ZM48.5728 30V22H50.3488V30H48.5728ZM49.4688 20.48C49.1808 20.48 48.9301 20.3787 48.7168 20.176C48.5141 19.9627 48.4128 19.712 48.4128 19.424C48.4128 19.136 48.5141 18.8907 48.7168 18.688C48.9301 18.4853 49.1808 18.384 49.4688 18.384C49.7568 18.384 50.0021 18.4853 50.2048 18.688C50.4181 18.8907 50.5248 19.136 50.5248 19.424C50.5248 19.712 50.4181 19.9627 50.2048 20.176C50.0021 20.3787 49.7568 20.48 49.4688 20.48ZM55.6448 30.192C54.8021 30.192 54.1568 29.984 53.7088 29.568C53.2714 29.1413 53.0528 28.5333 53.0528 27.744V19.504H54.8288V27.408C54.8288 27.7813 54.9141 28.064 55.0848 28.256C55.2661 28.448 55.5274 28.544 55.8688 28.544C55.9754 28.544 56.0928 28.5227 56.2208 28.48C56.3488 28.4373 56.4928 28.3573 56.6528 28.24L57.3088 29.6C57.0314 29.792 56.7541 29.936 56.4768 30.032C56.1994 30.1387 55.9221 30.192 55.6448 30.192ZM51.7248 23.536V22H56.9888V23.536H51.7248ZM58.854 30V22H60.63V30H58.854ZM59.75 20.48C59.462 20.48 59.2113 20.3787 58.998 20.176C58.7953 19.9627 58.694 19.712 58.694 19.424C58.694 19.136 58.7953 18.8907 58.998 18.688C59.2113 18.4853 59.462 18.384 59.75 18.384C60.038 18.384 60.2833 18.4853 60.486 18.688C60.6993 18.8907 60.806 19.136 60.806 19.424C60.806 19.712 60.6993 19.9627 60.486 20.176C60.2833 20.3787 60.038 20.48 59.75 20.48ZM67.622 30L67.542 28.496V25.888C67.542 25.344 67.4833 24.8907 67.366 24.528C67.2593 24.1547 67.078 23.872 66.822 23.68C66.5767 23.4773 66.246 23.376 65.83 23.376C65.446 23.376 65.11 23.456 64.822 23.616C64.534 23.776 64.2887 24.0267 64.086 24.368L62.518 23.792C62.6887 23.44 62.9127 23.1147 63.19 22.816C63.478 22.5067 63.8353 22.2613 64.262 22.08C64.6993 21.8987 65.222 21.808 65.83 21.808C66.6087 21.808 67.2593 21.9627 67.782 22.272C68.3047 22.5707 68.6887 23.0027 68.934 23.568C69.19 24.1333 69.318 24.816 69.318 25.616L69.27 30H67.622ZM65.318 30.192C64.358 30.192 63.6113 29.9787 63.078 29.552C62.5553 29.1253 62.294 28.5227 62.294 27.744C62.294 26.912 62.5713 26.2773 63.126 25.84C63.6913 25.4027 64.4753 25.184 65.478 25.184H67.622V26.56H66.054C65.3393 26.56 64.838 26.6613 64.55 26.864C64.262 27.056 64.118 27.3333 64.118 27.696C64.118 28.0053 64.2407 28.2507 64.486 28.432C64.742 28.6027 65.094 28.688 65.542 28.688C65.9473 28.688 66.2993 28.5973 66.598 28.416C66.8967 28.2347 67.126 27.9947 67.286 27.696C67.4567 27.3973 67.542 27.0613 67.542 26.688H68.07C68.07 27.776 67.8513 28.6347 67.414 29.264C66.9767 29.8827 66.278 30.192 65.318 30.192ZM71.1326 30V18.8H72.9246V30H71.1326ZM75.0259 30V22H76.8019V30H75.0259ZM75.9219 20.48C75.6339 20.48 75.3832 20.3787 75.1699 20.176C74.9672 19.9627 74.8659 19.712 74.8659 19.424C74.8659 19.136 74.9672 18.8907 75.1699 18.688C75.3832 18.4853 75.6339 18.384 75.9219 18.384C76.2099 18.384 76.4552 18.4853 76.6579 18.688C76.8712 18.8907 76.9779 19.136 76.9779 19.424C76.9779 19.712 76.8712 19.9627 76.6579 20.176C76.4552 20.3787 76.2099 20.48 75.9219 20.48ZM81.8259 30.192C81.2925 30.192 80.8019 30.112 80.3539 29.952C79.9059 29.792 79.5219 29.568 79.2019 29.28C78.8819 28.9813 78.6365 28.6347 78.4659 28.24L80.0179 27.552C80.1779 27.8507 80.4125 28.1013 80.7219 28.304C81.0419 28.5067 81.3939 28.608 81.7779 28.608C82.1939 28.608 82.5245 28.5387 82.7699 28.4C83.0259 28.2507 83.1539 28.048 83.1539 27.792C83.1539 27.5467 83.0579 27.36 82.8659 27.232C82.6739 27.0933 82.4019 26.9813 82.0499 26.896L81.2979 26.688C80.5405 26.496 79.9485 26.192 79.5219 25.776C79.0952 25.3493 78.8819 24.864 78.8819 24.32C78.8819 23.52 79.1379 22.9013 79.6499 22.464C80.1725 22.0267 80.9192 21.808 81.8899 21.808C82.3805 21.808 82.8285 21.8827 83.2339 22.032C83.6499 22.1707 84.0072 22.3733 84.3059 22.64C84.6045 22.896 84.8125 23.2 84.9299 23.552L83.4419 24.224C83.3352 23.9573 83.1325 23.7547 82.8339 23.616C82.5352 23.4667 82.2045 23.392 81.8419 23.392C81.4792 23.392 81.1965 23.472 80.9939 23.632C80.7912 23.7813 80.6899 23.9947 80.6899 24.272C80.6899 24.432 80.7805 24.5813 80.9619 24.72C81.1432 24.848 81.4045 24.9547 81.7459 25.04L82.6899 25.264C83.2125 25.392 83.6392 25.5947 83.9699 25.872C84.3005 26.1387 84.5459 26.4427 84.7059 26.784C84.8659 27.1147 84.9459 27.4507 84.9459 27.792C84.9459 28.272 84.8072 28.6933 84.5299 29.056C84.2632 29.4187 83.8952 29.7013 83.4259 29.904C82.9565 30.096 82.4232 30.192 81.8259 30.192ZM89.935 30.192C89.1563 30.192 88.463 30.016 87.855 29.664C87.2577 29.3013 86.783 28.8053 86.431 28.176C86.0897 27.5467 85.919 26.8213 85.919 26C85.919 25.1787 86.095 24.4533 86.447 23.824C86.799 23.1947 87.279 22.704 87.887 22.352C88.5057 21.9893 89.2097 21.808 89.999 21.808C90.7137 21.808 91.359 21.9947 91.935 22.368C92.511 22.7307 92.9643 23.2587 93.295 23.952C93.6363 24.6453 93.807 25.472 93.807 26.432H87.519L87.759 26.208C87.759 26.6987 87.8657 27.1253 88.079 27.488C88.2923 27.84 88.575 28.112 88.927 28.304C89.279 28.496 89.6683 28.592 90.095 28.592C90.5857 28.592 90.991 28.4853 91.311 28.272C91.631 28.048 91.8817 27.76 92.063 27.408L93.647 28.08C93.423 28.5067 93.135 28.88 92.783 29.2C92.4417 29.52 92.031 29.7653 91.551 29.936C91.0817 30.1067 90.543 30.192 89.935 30.192ZM87.871 25.28L87.615 25.056H92.127L91.887 25.28C91.887 24.8427 91.791 24.4853 91.599 24.208C91.407 23.92 91.1617 23.7067 90.863 23.568C90.575 23.4187 90.271 23.344 89.951 23.344C89.631 23.344 89.311 23.4187 88.991 23.568C88.671 23.7067 88.4043 23.92 88.191 24.208C87.9777 24.4853 87.871 24.8427 87.871 25.28ZM96.3635 25.744C96.3635 24.88 96.5288 24.1707 96.8595 23.616C97.1902 23.0613 97.6168 22.6507 98.1395 22.384C98.6728 22.1067 99.2275 21.968 99.8035 21.968V23.68C99.3128 23.68 98.8488 23.7493 98.4115 23.888C97.9848 24.016 97.6382 24.2293 97.3715 24.528C97.1048 24.8267 96.9715 25.2213 96.9715 25.712L96.3635 25.744ZM95.1795 30V22H96.9715V30H95.1795Z" fill="black"/>
<path d="M115.788 24.9272C116.626 23.5123 117.905 22.4118 119.429 21.7951C120.953 21.1784 122.638 21.0797 124.224 21.5142C125.81 21.9487 127.209 22.8922 128.206 24.1996C129.203 25.5071 129.743 27.1059 129.742 28.7502C129.742 29.0154 129.848 29.2698 130.035 29.4573C130.223 29.6448 130.477 29.7502 130.742 29.7502C131.007 29.7502 131.262 29.6448 131.449 29.4573C131.637 29.2698 131.742 29.0154 131.742 28.7502C131.742 26.7389 131.104 24.7795 129.919 23.1541C128.735 21.5287 127.065 20.3213 125.15 19.7056C123.235 19.0899 121.175 19.0978 119.265 19.7282C117.355 20.3585 115.694 21.5788 114.522 23.2132L113.985 20.1682C113.939 19.9069 113.791 19.6747 113.574 19.5225C113.357 19.3703 113.088 19.3107 112.827 19.3567C112.565 19.4027 112.333 19.5506 112.181 19.7679C112.029 19.9851 111.969 20.2539 112.015 20.5152L113.057 26.4242C113.104 26.6853 113.252 26.9173 113.469 27.0692C113.611 27.1642 113.773 27.225 113.942 27.2467C114.111 27.2683 114.283 27.2504 114.444 27.1942L120.124 26.1932C120.385 26.1472 120.618 25.9993 120.77 25.782C120.922 25.5647 120.982 25.2959 120.936 25.0347C120.89 24.7734 120.742 24.5412 120.524 24.389C120.307 24.2368 120.038 24.1772 119.777 24.2232L115.788 24.9272Z" fill="black"/>
</svg>
